<?xml version="1.0" encoding="utf-8"?>
<!-- Generator: Adobe Illustrator 15.0.2, SVG Export Plug-In . SVG Version: 6.00 Build 0)  -->
<!DOCTYPE svg PUBLIC "-//W3C//DTD SVG 1.1//EN" "http://www.w3.org/Graphics/SVG/1.1/DTD/svg11.dtd">
<svg version="1.1" id="Ebene_1" xmlns="http://www.w3.org/2000/svg" xmlns:xlink="http://www.w3.org/1999/xlink" x="0px" y="0px"
	 width="183.868px" height="93.112px" viewBox="0 0 183.868 93.112" enable-background="new 0 0 183.868 93.112" xml:space="preserve">
<g transform="scale(2)">
	<path fill="#697D91" d="M35.863,8.452c-0.105,0-0.195-0.09-0.195-0.195V3.474c0-0.104,0.09-0.195,0.195-0.195h1.329
		c1.089,0,1.486,0.571,1.486,1.382c0,0.54-0.135,0.833-0.63,1.043c0.503,0.143,0.863,0.533,0.863,1.299
		c0,1.028-0.676,1.449-1.637,1.449H35.863z M36.351,5.471h0.856c0.608,0,0.743-0.255,0.743-0.796c0-0.54-0.173-0.818-0.781-0.818
		h-0.818V5.471z M36.358,7.874h0.841c0.721,0,0.976-0.277,0.976-0.908c0-0.623-0.232-0.908-0.946-0.908h-0.871V7.874z"/>
	<path fill="#697D91" d="M41.611,8.549c-0.983,0-1.539-0.57-1.539-1.982c0-1.426,0.585-1.974,1.472-1.974
		c0.893,0,1.404,0.51,1.404,1.869v0.135c0,0.067-0.053,0.12-0.12,0.12h-2.064c0.015,1.028,0.24,1.284,0.863,1.284
		c0.323,0,0.533-0.098,0.728-0.233c0.09-0.067,0.218-0.045,0.278,0.038l0.12,0.157c0.06,0.083,0.045,0.211-0.045,0.271
		C42.399,8.452,42.084,8.549,41.611,8.549z M41.528,5.103c-0.436,0-0.706,0.226-0.758,1.127h1.494
		C42.264,5.366,42.069,5.103,41.528,5.103z"/>
	<path fill="#697D91" d="M44.45,8.452c-0.105,0-0.195-0.09-0.195-0.195V4.885c0-0.104,0.09-0.194,0.195-0.194h0.112
		c0.113,0,0.21,0.082,0.233,0.194l0.067,0.338c0.278-0.345,0.623-0.601,1.059-0.601c0.022,0,0.053,0,0.075,0.008
		c0.03,0.008,0.06,0.037,0.053,0.067l-0.053,0.525c-0.007,0.053-0.06,0.098-0.12,0.091c-0.038-0.008-0.083-0.008-0.12-0.008
		c-0.345,0-0.578,0.128-0.856,0.383v2.567c0,0.105-0.09,0.195-0.195,0.195H44.45z"/>
	<path fill="#697D91" d="M47.402,8.452c-0.105,0-0.195-0.09-0.195-0.195V4.885c0-0.104,0.09-0.194,0.195-0.194h0.112
		c0.113,0,0.21,0.082,0.233,0.188l0.06,0.277c0.331-0.33,0.706-0.563,1.148-0.563c0.541,0,0.909,0.277,0.909,0.916v2.747
		c0,0.105-0.09,0.195-0.195,0.195h-0.255c-0.105,0-0.195-0.09-0.195-0.195V5.711c0-0.428-0.12-0.548-0.458-0.548
		c-0.3,0-0.638,0.21-0.909,0.45v2.643c0,0.105-0.09,0.195-0.195,0.195H47.402z"/>
	<path fill="#697D91" d="M52.71,8.549c-0.983,0-1.539-0.57-1.539-1.982c0-1.426,0.586-1.974,1.472-1.974
		c0.893,0,1.404,0.51,1.404,1.869v0.135c0,0.067-0.053,0.12-0.12,0.12h-2.064c0.015,1.028,0.24,1.284,0.863,1.284
		c0.323,0,0.533-0.098,0.728-0.233c0.09-0.067,0.218-0.045,0.278,0.038l0.12,0.157c0.06,0.083,0.045,0.211-0.045,0.271
		C53.498,8.452,53.183,8.549,52.71,8.549z M52.627,5.103c-0.436,0-0.706,0.226-0.758,1.127h1.494
		C53.363,5.366,53.168,5.103,52.627,5.103z"/>
	<path fill="#697D91" d="M55.549,8.452c-0.105,0-0.195-0.09-0.195-0.195V4.885c0-0.104,0.09-0.194,0.195-0.194h0.112
		c0.113,0,0.21,0.082,0.233,0.194l0.067,0.338c0.278-0.345,0.623-0.601,1.059-0.601c0.022,0,0.053,0,0.075,0.008
		c0.03,0.008,0.06,0.037,0.053,0.067l-0.053,0.525c-0.007,0.053-0.06,0.098-0.12,0.091c-0.038-0.008-0.083-0.008-0.12-0.008
		c-0.345,0-0.578,0.128-0.856,0.383v2.567c0,0.105-0.09,0.195-0.195,0.195H55.549z"/>
	<path fill="#697D91" d="M35.938,17.452c-0.105,0-0.195-0.09-0.195-0.195v-4.782c0-0.104,0.09-0.195,0.195-0.195h2.185
		c0.105,0,0.195,0.091,0.195,0.195v0.203c0,0.104-0.09,0.195-0.195,0.195h-1.689v1.568h1.336c0.105,0,0.195,0.091,0.195,0.195v0.203
		c0,0.104-0.09,0.195-0.195,0.195h-1.336v2.222c0,0.105-0.09,0.195-0.195,0.195H35.938z"/>
	<path fill="#697D91" d="M40.251,17.549c-0.721,0-1.134-0.397-1.134-1.171c0-0.856,0.503-1.254,1.734-1.254h0.308v-0.293
		c0-0.42-0.053-0.676-0.541-0.676c-0.323,0-0.638,0.113-0.923,0.256c-0.098,0.045-0.218,0.007-0.263-0.091l-0.075-0.143
		c-0.045-0.098-0.008-0.218,0.09-0.271c0.338-0.18,0.729-0.314,1.239-0.314c0.736,0,1.119,0.33,1.119,1.133v2.53
		c0,0.105-0.09,0.195-0.195,0.195h-0.112c-0.113,0-0.218-0.075-0.248-0.188l-0.052-0.188C40.979,17.317,40.664,17.549,40.251,17.549
		z M40.333,17.039c0.368,0,0.646-0.248,0.826-0.45v-0.999h-0.225c-0.946,0-1.126,0.24-1.126,0.789
		C39.808,16.874,39.965,17.039,40.333,17.039z"/>
	<path fill="#697D91" d="M44.606,17.549c-0.961,0-1.494-0.631-1.494-1.982c0-1.434,0.571-1.974,1.501-1.974
		c0.36,0,0.646,0.082,0.916,0.3c0.09,0.067,0.098,0.188,0.03,0.271l-0.12,0.15c-0.075,0.082-0.195,0.09-0.277,0.022
		c-0.166-0.128-0.323-0.195-0.571-0.195c-0.57,0-0.788,0.247-0.788,1.426c0,1.156,0.24,1.435,0.841,1.435
		c0.232,0,0.39-0.09,0.548-0.218c0.083-0.067,0.21-0.061,0.278,0.022l0.135,0.143c0.075,0.075,0.067,0.203-0.015,0.271
		C45.342,17.437,45.034,17.549,44.606,17.549z"/>
	<path fill="#697D91" d="M47.085,17.452c-0.105,0-0.195-0.09-0.195-0.195v-5.045c0-0.104,0.09-0.195,0.195-0.195h0.255
		c0.105,0,0.195,0.091,0.195,0.195v1.899c0.331-0.308,0.668-0.518,1.104-0.518c0.541,0,0.909,0.277,0.909,0.916v2.747
		c0,0.105-0.09,0.195-0.195,0.195h-0.255c-0.105,0-0.195-0.09-0.195-0.195v-2.545c0-0.428-0.12-0.548-0.458-0.548
		c-0.3,0-0.638,0.21-0.909,0.45v2.643c0,0.105-0.09,0.195-0.195,0.195H47.085z"/>
	<path fill="#697D91" d="M51.246,17.452c-0.105,0-0.195-0.09-0.195-0.195v-5.045c0-0.104,0.09-0.195,0.195-0.195h0.255
		c0.105,0,0.195,0.091,0.195,0.195v1.899c0.331-0.308,0.668-0.518,1.104-0.518c0.541,0,0.909,0.277,0.909,0.916v2.747
		c0,0.105-0.09,0.195-0.195,0.195h-0.255c-0.105,0-0.195-0.09-0.195-0.195v-2.545c0-0.428-0.12-0.548-0.458-0.548
		c-0.3,0-0.638,0.21-0.909,0.45v2.643c0,0.105-0.09,0.195-0.195,0.195H51.246z"/>
	<path fill="#697D91" d="M56.559,17.549c-0.916,0-1.539-0.57-1.539-1.982c0-1.411,0.608-1.974,1.524-1.974
		c0.916,0,1.547,0.563,1.547,1.974C58.09,16.979,57.475,17.549,56.559,17.549z M56.559,17.039c0.571,0,0.841-0.308,0.841-1.464
		c0-1.163-0.278-1.472-0.848-1.472c-0.571,0-0.841,0.301-0.841,1.464C55.71,16.723,55.988,17.039,56.559,17.039z"/>
	<path fill="#697D91" d="M60.719,17.549c-0.961,0-1.494-0.631-1.494-1.982c0-1.434,0.571-1.974,1.501-1.974
		c0.36,0,0.646,0.082,0.916,0.3c0.09,0.067,0.098,0.188,0.03,0.271l-0.12,0.15c-0.075,0.082-0.195,0.09-0.278,0.022
		c-0.166-0.128-0.323-0.195-0.571-0.195c-0.57,0-0.788,0.247-0.788,1.426c0,1.156,0.24,1.435,0.841,1.435
		c0.232,0,0.39-0.09,0.548-0.218c0.083-0.067,0.21-0.061,0.278,0.022l0.135,0.143c0.075,0.075,0.067,0.203-0.015,0.271
		C61.455,17.437,61.147,17.549,60.719,17.549z"/>
	<path fill="#697D91" d="M63.199,17.452c-0.105,0-0.195-0.09-0.195-0.195v-5.045c0-0.104,0.09-0.195,0.195-0.195h0.255
		c0.105,0,0.195,0.091,0.195,0.195v1.899c0.331-0.308,0.668-0.518,1.104-0.518c0.541,0,0.909,0.277,0.909,0.916v2.747
		c0,0.105-0.09,0.195-0.195,0.195H65.21c-0.105,0-0.195-0.09-0.195-0.195v-2.545c0-0.428-0.12-0.548-0.458-0.548
		c-0.3,0-0.638,0.21-0.909,0.45v2.643c0,0.105-0.09,0.195-0.195,0.195H63.199z"/>
	<path fill="#697D91" d="M68.055,17.549c-0.413,0-0.811-0.135-1.088-0.293c-0.09-0.06-0.12-0.18-0.068-0.271l0.083-0.143
		c0.052-0.098,0.172-0.127,0.263-0.075c0.263,0.15,0.533,0.24,0.841,0.24c0.51,0,0.668-0.202,0.668-0.555
		c0-0.421-0.195-0.503-0.796-0.669c-0.525-0.143-0.961-0.42-0.961-1.163c0-0.548,0.353-1.028,1.179-1.028
		c0.36,0,0.631,0.06,0.871,0.157c0.098,0.045,0.143,0.165,0.098,0.263l-0.068,0.15c-0.045,0.098-0.158,0.15-0.263,0.105
		c-0.218-0.098-0.39-0.128-0.616-0.128c-0.405,0-0.593,0.143-0.593,0.465c0,0.354,0.157,0.443,0.675,0.586
		c0.578,0.157,1.104,0.383,1.104,1.231C69.384,17.204,68.94,17.549,68.055,17.549z"/>
	<path fill="#697D91" d="M71.976,17.549c-0.961,0-1.494-0.631-1.494-1.982c0-1.434,0.571-1.974,1.501-1.974
		c0.36,0,0.646,0.082,0.916,0.3c0.09,0.067,0.098,0.188,0.03,0.271l-0.12,0.15c-0.075,0.082-0.195,0.09-0.278,0.022
		c-0.166-0.128-0.323-0.195-0.571-0.195c-0.57,0-0.788,0.247-0.788,1.426c0,1.156,0.24,1.435,0.841,1.435
		c0.232,0,0.39-0.09,0.548-0.218c0.083-0.067,0.21-0.061,0.278,0.022l0.135,0.143c0.075,0.075,0.067,0.203-0.015,0.271
		C72.712,17.437,72.404,17.549,71.976,17.549z"/>
	<path fill="#697D91" d="M74.455,17.452c-0.105,0-0.195-0.09-0.195-0.195v-5.045c0-0.104,0.09-0.195,0.195-0.195h0.255
		c0.105,0,0.195,0.091,0.195,0.195v1.899c0.331-0.308,0.668-0.518,1.104-0.518c0.541,0,0.909,0.277,0.909,0.916v2.747
		c0,0.105-0.09,0.195-0.195,0.195h-0.255c-0.105,0-0.195-0.09-0.195-0.195v-2.545c0-0.428-0.12-0.548-0.458-0.548
		c-0.3,0-0.638,0.21-0.909,0.45v2.643c0,0.105-0.09,0.195-0.195,0.195H74.455z"/>
	<path fill="#697D91" d="M79.364,17.549c-0.541,0-0.961-0.308-0.961-0.961v-2.703c0-0.104,0.09-0.194,0.195-0.194h0.255
		c0.105,0,0.195,0.09,0.195,0.194v2.5c0,0.443,0.15,0.594,0.488,0.594c0.3,0,0.623-0.203,0.901-0.451v-2.643
		c0-0.104,0.09-0.194,0.195-0.194h0.255c0.105,0,0.195,0.09,0.195,0.194v3.371c0,0.105-0.09,0.195-0.195,0.195h-0.113
		c-0.113,0-0.21-0.083-0.233-0.188l-0.06-0.278C80.167,17.309,79.807,17.549,79.364,17.549z"/>
	<path fill="#697D91" d="M83.296,17.527c-0.48,0-0.683-0.256-0.683-0.916v-4.399c0-0.104,0.09-0.195,0.195-0.195h0.255
		c0.105,0,0.195,0.091,0.195,0.195v4.52c0,0.188,0.083,0.263,0.263,0.263c0.03,0,0.06,0,0.083-0.008
		c0.038,0,0.075,0.022,0.083,0.061l0.038,0.218c0.022,0.104-0.045,0.21-0.15,0.232C83.484,17.511,83.386,17.527,83.296,17.527z"/>
	<path fill="#697D91" d="M86.183,17.549c-0.983,0-1.539-0.57-1.539-1.982c0-1.426,0.585-1.974,1.472-1.974
		c0.893,0,1.404,0.51,1.404,1.869v0.135c0,0.067-0.053,0.12-0.12,0.12h-2.064c0.015,1.028,0.24,1.284,0.863,1.284
		c0.323,0,0.533-0.098,0.728-0.233c0.09-0.067,0.218-0.045,0.278,0.038l0.12,0.157c0.06,0.083,0.045,0.211-0.045,0.271
		C86.972,17.452,86.656,17.549,86.183,17.549z M86.101,14.103c-0.436,0-0.706,0.226-0.758,1.127h1.494
		C86.836,14.366,86.641,14.103,86.101,14.103z"/>
	<path fill="#697D91" d="M17.367,3C23.184,3,27.9,7.715,27.9,13.534c0,3.907-1.811,7.298-4.742,9.137
		c-0.057,0.037-0.099,0.091-0.099,0.162c0,0.129,0.102,0.162,0.109,0.165c3.801,1.471,6.187,5.353,6.187,9.861
		c0,5.82-4.719,10.535-10.536,10.535L4.909,43.391c-0.808,0-1.462-0.655-1.462-1.46V4.462C3.447,3.654,4.102,3,4.909,3H17.367z"/>
	<path fill="#FAC300" d="M12.274,36.242c-0.186,0-0.345-0.159-0.345-0.345V27.45c0-0.186,0.159-0.345,0.345-0.345h0.53
		c0.186,0,0.346,0.159,0.346,0.345v3.742h3.288V27.45c0-0.186,0.159-0.345,0.345-0.345h0.53c0.185,0,0.345,0.159,0.345,0.345v8.447
		c0,0.186-0.16,0.345-0.345,0.345h-0.53c-0.186,0-0.345-0.159-0.345-0.345v-3.631H13.15v3.631c0,0.186-0.161,0.345-0.346,0.345
		H12.274z"/>
	<path fill="#FAC300" d="M12.239,19.256c-0.186,0-0.345-0.159-0.345-0.344v-8.448c0-0.186,0.159-0.346,0.345-0.346h5.082
		c0.185,0,0.345,0.161,0.345,0.346v0.358c0,0.186-0.16,0.344-0.345,0.344h-4.206v2.937h3.582c0.187,0,0.346,0.159,0.346,0.345
		v0.359c0,0.186-0.159,0.345-0.346,0.345h-3.582v3.761c0,0.186-0.159,0.344-0.345,0.344H12.239z"/>
</g>
</svg>
